<svg width="16" height="12" viewBox="0 0 16 12" fill="none" xmlns="http://www.w3.org/2000/svg">
<path d="M0.838245 1.41022H15.1513C15.6333 1.41022 16 1.10365 16 0.709489C16 0.306569 15.6333 0 15.1513 0H0.838245C0.366732 0 0 0.306569 0 0.709489C0 1.10365 0.366732 1.41022 0.838245 1.41022ZM0.838245 6.70949H15.1513C15.6333 6.70949 16 6.39416 16 6C16 5.60584 15.6333 5.29927 15.1513 5.29927H0.838245C0.366732 5.29927 0 5.60584 0 6C0 6.39416 0.366732 6.70949 0.838245 6.70949ZM0.838245 12H15.1513C15.6333 12 16 11.6934 16 11.2993C16 10.8964 15.6333 10.5898 15.1513 10.5898H0.838245C0.366732 10.5898 0 10.8964 0 11.2993C0 11.6934 0.366732 12 0.838245 12Z" fill="black"/>
</svg>
