<svg width="14" height="14" viewBox="0 0 14 14" fill="none" xmlns="http://www.w3.org/2000/svg">
<path d="M1.54588 13.6585C1.30638 13.9069 1.13219 14 0.783826 14C0.326594 14 0 13.7827 0 13.4878C0 13.3481 0.0653188 13.2395 0.195956 13.0998L6.0311 6.98448L0.326594 0.962306C0.195956 0.807095 0.108865 0.698448 0.108865 0.558758C0.108865 0.232816 0.457232 0 0.89269 0C1.26283 0 1.45879 0.0931264 1.67652 0.325942L7.01089 6.06874H7.11975L12.4541 0.325942C12.6719 0.0931264 12.8678 0 13.2162 0C13.6734 0 14 0.217295 14 0.512195C14 0.651885 13.9347 0.760532 13.804 0.900222L7.9689 7L13.717 13.0532C13.8476 13.1929 13.9129 13.3016 13.9129 13.4568C13.9129 13.7827 13.5863 14 13.1509 14C12.7807 14 12.5848 13.9069 12.367 13.6585L7.03266 7.93126H6.92379L1.54588 13.6585Z" fill="black"/>
</svg>
