<svg width="59" height="19" viewBox="0 0 59 19" fill="none" xmlns="http://www.w3.org/2000/svg">
<path d="M7.88797 5.02397C7.54664 4.74664 7.2053 4.54397 6.86397 4.41597C6.52264 4.2773 6.19197 4.20797 5.87197 4.20797C5.46664 4.20797 5.13597 4.30397 4.87997 4.49597C4.62397 4.68797 4.49597 4.93864 4.49597 5.24797C4.49597 5.4613 4.55997 5.6373 4.68797 5.77597C4.81597 5.91464 4.9813 6.0373 5.18397 6.14397C5.3973 6.23997 5.63197 6.3253 5.88797 6.39997C6.15464 6.47464 6.41597 6.55464 6.67197 6.63997C7.69597 6.9813 8.44264 7.43997 8.91197 8.01597C9.39197 8.5813 9.63197 9.32264 9.63197 10.24C9.63197 10.8586 9.5253 11.4186 9.31197 11.92C9.1093 12.4213 8.8053 12.8533 8.39997 13.216C8.0053 13.568 7.51464 13.84 6.92797 14.032C6.35197 14.2346 5.69597 14.336 4.95997 14.336C3.43464 14.336 2.0213 13.8826 0.719971 12.976L2.06397 10.448C2.5333 10.864 2.9973 11.1733 3.45597 11.376C3.91464 11.5786 4.36797 11.68 4.81597 11.68C5.32797 11.68 5.70664 11.5626 5.95197 11.328C6.20797 11.0933 6.33597 10.8266 6.33597 10.528C6.33597 10.3466 6.30397 10.192 6.23997 10.064C6.17597 9.9253 6.0693 9.80264 5.91997 9.69597C5.77064 9.57864 5.5733 9.47197 5.32797 9.37597C5.0933 9.27997 4.8053 9.1733 4.46397 9.05597C4.05864 8.92797 3.65864 8.7893 3.26397 8.63997C2.87997 8.47997 2.5333 8.27197 2.22397 8.01597C1.9253 7.75997 1.67997 7.43997 1.48797 7.05597C1.30664 6.6613 1.21597 6.1653 1.21597 5.56797C1.21597 4.97064 1.31197 4.43197 1.50397 3.95197C1.70664 3.4613 1.98397 3.0453 2.33597 2.70397C2.69864 2.35197 3.13597 2.07997 3.64797 1.88797C4.17064 1.69597 4.75197 1.59997 5.39197 1.59997C5.9893 1.59997 6.6133 1.6853 7.26397 1.85597C7.91464 2.01597 8.53864 2.25597 9.13597 2.57597L7.88797 5.02397Z" fill="black"/>
<path d="M14.2317 5.79197V14H11.3357V5.79197H14.2317ZM11.1437 2.63997C11.1437 2.41597 11.1864 2.20797 11.2717 2.01597C11.3571 1.8133 11.4744 1.6373 11.6237 1.48797C11.7731 1.33864 11.9437 1.2213 12.1357 1.13597C12.3384 1.05064 12.5517 1.00797 12.7757 1.00797C12.9997 1.00797 13.2077 1.05064 13.3997 1.13597C13.6024 1.2213 13.7784 1.33864 13.9277 1.48797C14.0771 1.6373 14.1944 1.8133 14.2797 2.01597C14.3651 2.20797 14.4077 2.41597 14.4077 2.63997C14.4077 2.86397 14.3651 3.0773 14.2797 3.27997C14.1944 3.47197 14.0771 3.64264 13.9277 3.79197C13.7784 3.9413 13.6024 4.05864 13.3997 4.14397C13.2077 4.2293 12.9997 4.27197 12.7757 4.27197C12.5517 4.27197 12.3384 4.2293 12.1357 4.14397C11.9437 4.05864 11.7731 3.9413 11.6237 3.79197C11.4744 3.64264 11.3571 3.47197 11.2717 3.27997C11.1864 3.0773 11.1437 2.86397 11.1437 2.63997Z" fill="black"/>
<path d="M16.2107 5.79197H19.1067V6.79997C19.8961 6.04264 20.7814 5.66397 21.7627 5.66397C22.9787 5.66397 23.9067 6.17597 24.5467 7.19997C25.1974 6.1653 26.1254 5.64797 27.3307 5.64797C27.7147 5.64797 28.0774 5.70664 28.4187 5.82397C28.7601 5.93064 29.0534 6.10664 29.2987 6.35197C29.5441 6.58664 29.7361 6.89597 29.8747 7.27997C30.0241 7.66397 30.0987 8.12797 30.0987 8.67197V14H27.2027V9.95197C27.2027 9.53597 27.1707 9.19464 27.1067 8.92797C27.0534 8.6613 26.9681 8.4533 26.8507 8.30397C26.7441 8.15464 26.6161 8.0533 26.4667 7.99997C26.3174 7.94664 26.1574 7.91997 25.9867 7.91997C25.0587 7.91997 24.5947 8.5973 24.5947 9.95197V14H21.6987V9.95197C21.6987 9.53597 21.6721 9.19464 21.6187 8.92797C21.5654 8.65064 21.4854 8.43197 21.3787 8.27197C21.2827 8.11197 21.1547 8.0053 20.9947 7.95197C20.8347 7.88797 20.6481 7.85597 20.4347 7.85597C20.2534 7.85597 20.0827 7.88264 19.9227 7.93597C19.7627 7.9893 19.6187 8.09597 19.4907 8.25597C19.3734 8.4053 19.2774 8.61864 19.2027 8.89597C19.1387 9.16264 19.1067 9.51464 19.1067 9.95197V14H16.2107V5.79197Z" fill="black"/>
<path d="M38.911 9.91997C38.911 9.66397 38.863 9.42397 38.767 9.19997C38.6816 8.9653 38.5536 8.76264 38.383 8.59197C38.2123 8.4213 38.0096 8.28797 37.775 8.19197C37.551 8.0853 37.3056 8.03197 37.039 8.03197C36.783 8.03197 36.543 8.07997 36.319 8.17597C36.095 8.27197 35.8976 8.4053 35.727 8.57597C35.567 8.74664 35.4336 8.9493 35.327 9.18397C35.231 9.40797 35.183 9.64797 35.183 9.90397C35.183 10.16 35.231 10.4 35.327 10.624C35.423 10.848 35.5563 11.0453 35.727 11.216C35.8976 11.376 36.095 11.5093 36.319 11.616C36.5536 11.712 36.799 11.76 37.055 11.76C37.311 11.76 37.551 11.712 37.775 11.616C37.999 11.52 38.191 11.3866 38.351 11.216C38.5216 11.0453 38.655 10.848 38.751 10.624C38.8576 10.4 38.911 10.1653 38.911 9.91997ZM35.263 18.096H32.367V5.79197H35.263V6.70397C35.8816 5.9253 36.7243 5.53597 37.791 5.53597C38.3776 5.53597 38.9216 5.6533 39.423 5.88797C39.935 6.11197 40.3776 6.4213 40.751 6.81597C41.1243 7.21064 41.4123 7.67464 41.615 8.20797C41.8283 8.7413 41.935 9.31197 41.935 9.91997C41.935 10.528 41.8283 11.0933 41.615 11.616C41.4123 12.1386 41.1243 12.5973 40.751 12.992C40.3883 13.3866 39.9563 13.696 39.455 13.92C38.9536 14.144 38.4096 14.256 37.823 14.256C36.799 14.256 35.9456 13.904 35.263 13.2V18.096Z" fill="black"/>
<path d="M46.4817 0.719971V14H43.5857V0.719971H46.4817Z" fill="black"/>
<path d="M51.593 12.88L47.625 5.79197H50.985L53.177 9.99997L55.305 5.79197H58.633L52.041 18.096H48.793L51.593 12.88Z" fill="black"/>
</svg>
